<svg xmlns:dc="http://purl.org/dc/elements/1.1/" xmlns:cc="http://creativecommons.org/ns#" xmlns:rdf="http://www.w3.org/1999/02/22-rdf-syntax-ns#" xmlns:svg="http://www.w3.org/2000/svg" xmlns="http://www.w3.org/2000/svg" xmlns:sodipodi="http://sodipodi.sourceforge.net/DTD/sodipodi-0.dtd" xmlns:inkscape="http://www.inkscape.org/namespaces/inkscape" version="1.1" x="0px" y="0px" viewBox="0 0 100 125">
  <g transform="translate(0,-952.36218)">
    <path style="text-indent:0;text-transform:none;direction:ltr;block-progression:tb;baseline-shift:baseline;color:#FFFFFF;enable-background:accumulate;" d="m 50,964.36215 c -13.2296,0 -26,10.28529 -26,24.84375 0,9.18102 3.5737,15.0158 6.875,19.6875 3.3013,4.6717 6.125,8.1036 6.125,13.4688 l 0,12 c 0,3.3944 2.8143,6 6,6 l 14,0 c 3.1857,0 6,-2.6056 6,-6 l 0,-12 c 0,-5.3652 2.8237,-8.7971 6.125,-13.4688 C 72.4263,1004.2217 76,998.38692 76,989.2059 76,974.64744 63.2296,964.36215 50,964.36215 z m 0,4 c 11.1608,0 22,8.63761 22,20.84375 0,8.18278 -2.9263,12.8486 -6.125,17.375 -2.8723,4.0645 -6.1151,8.0875 -6.75,13.7813 l -18.25,0 c -0.6349,-5.6938 -3.8777,-9.7168 -6.75,-13.7813 C 30.9263,1002.0545 28,997.38868 28,989.2059 28,976.99976 38.8392,968.36215 50,968.36215 z m -5.875,4.09375 c -0.274,10e-4 -0.5533,0.0387 -0.8438,0.125 -6.1812,2.33091 -10.7868,7.75495 -11.9687,14.40625 -0.1882,1.03084 0.5941,2.15559 1.625,2.34375 1.0308,0.18817 2.1243,-0.59416 2.3125,-1.625 0.9335,-5.2537 4.5956,-9.56876 9.4688,-11.40625 0.8689,-0.32306 1.4432,-1.30594 1.2812,-2.21875 -0.3318,-1.20346 -1.0531,-1.62928 -1.875,-1.625 z m -3.125,51.9063 18,0 0,4 -18,0 0,-4 z m 0,8 18,0 0,2 c 0,1.2018 -0.9647,2 -2,2 l -14,0 c -1.0353,0 -2,-0.7982 -2,-2 l 0,-2 z" fill="#FFFFFF" fill-opacity="1" stroke="none" marker="none" visibility="visible" display="inline" overflow="visible"/>
  </g>
  <text x="0" y="115" fill="#FFFFFF" font-size="5px" font-weight="bold" font-family="'Helvetica Neue', Helvetica, Arial-Unicode, Arial, Sans-serif">Created by Numero Uno</text>
  <text x="0" y="120" fill="#FFFFFF" font-size="5px" font-weight="bold" font-family="'Helvetica Neue', Helvetica, Arial-Unicode, Arial, Sans-serif">from the Noun Project</text>
</svg>
