<svg xmlns="http://www.w3.org/2000/svg" xmlns:xlink="http://www.w3.org/1999/xlink" version="1.1" x="0px" y="0px" viewBox="0 0 492 615" style="enable-background:new 0 0 492 492;" xml:space="preserve">
  <style type="text/css">
    .st0{fill:#FFFFFF;} /* changed fill color to white */
  </style>
  <g>
    <g>
      <g>
        <g>
          <g>
            <g>
              <path class="st0" d="M246.3,364.5c-15.9,0-31.3-3.1-45.9-9.3c-14-5.9-26.6-14.4-37.4-25.2c-10.8-10.8-19.3-23.4-25.2-37.4        c-6.1-14.5-9.3-30-9.3-45.9s3.1-31.3,9.3-45.9c5.9-14,14.4-26.6,25.2-37.4c10.8-10.8,23.4-19.3,37.4-25.2        c14.5-6.1,30-9.3,45.9-9.3c15.9,0,31.3,3.1,45.9,9.3c14,5.9,26.6,14.4,37.4,25.2c10.8,10.8,19.3,23.4,25.2,37.4        c6.1,14.5,9.3,30,9.3,45.9s-3.1,31.3-9.3,45.9c-5.9,14-14.4,26.6-25.2,37.4c-10.8,10.8-23.4,19.3-37.4,25.2        C277.6,361.4,262.2,364.5,246.3,364.5L246.3,364.5z M246.3,140.5c-58.6,0-106.3,47.7-106.3,106.3S187.7,353,246.3,353        s106.3-47.7,106.3-106.3C352.5,188.1,304.9,140.5,246.3,140.5z"/>
            </g>
          </g>
          <path class="st0" d="M265,431.1h-37.4c-6.4,0-11.6-5.2-11.6-11.6v-26.9c0,0,0,0-0.1,0c-18.4-3.8-35.7-11-51.4-21.3c0,0,0,0,0,0       l-19,19c-4.5,4.5-11.8,4.5-16.3,0l-26.4-26.4c-2.2-2.2-3.4-5.1-3.4-8.2c0-3.1,1.2-6,3.4-8.2l19-19c0,0,0,0,0,0       c-10.3-15.7-17.5-33-21.3-51.4c0,0,0-0.1,0-0.1H73.5c-6.4,0-11.6-5.2-11.6-11.6V228c0-6.4,5.2-11.6,11.6-11.6h26.9       c0,0,0,0,0-0.1c3.8-18.4,11-35.7,21.3-51.4c0,0,0,0,0,0l-19-19c-2.2-2.2-3.4-5.1-3.4-8.2c0-3.1,1.2-6,3.4-8.2l26.4-26.4       c4.5-4.5,11.8-4.5,16.3,0l19,19c0,0,0,0,0,0c15.7-10.3,33-17.5,51.4-21.3c0,0,0.1,0,0.1,0V74c0-6.4,5.2-11.6,11.6-11.6H265       c6.4,0,11.6,5.2,11.6,11.6v26.9c0,0,0,0,0.1,0c18.4,3.8,35.7,11,51.4,21.3c0,0,0,0,0,0l19-19c4.5-4.5,11.8-4.5,16.3,0       l26.4,26.4c2.2,2.2,3.4,5.1,3.4,8.2s-1.2,6-3.4,8.2l-19,19c0,0,0,0,0,0c10.3,15.7,17.5,33,21.3,51.4c0,0,0,0.1,0,0.1H419       c6.4,0,11.6,5.2,11.6,11.6v37.4c0,6.4-5.2,11.6-11.6,11.6h-26.9c0,0,0,0,0,0.1c-3.8,18.4-11,35.7-21.3,51.4c0,0,0,0,0,0l19,19       c2.2,2.2,3.4,5.1,3.4,8.2s-1.2,6-3.4,8.2l-26.4,26.4c-4.5,4.5-11.8,4.5-16.3,0l-19-19c0,0,0,0,0,0       c-15.7,10.3-33,17.5-51.4,21.3c0,0-0.1,0-0.1,0v26.9C276.5,425.9,271.3,431.1,265,431.1L265,431.1z M164.6,359.8       c2.2,0,4.4,0.6,6.3,1.9c14.5,9.5,30.5,16.2,47.4,19.7c5.4,1.1,9.2,5.9,9.2,11.3v26.9c0,0,0,0,0,0l37.4,0c0,0,0,0,0,0l0-26.9       c0-5.5,3.9-10.2,9.2-11.3c17-3.5,32.9-10.1,47.4-19.7c4.5-3,10.6-2.4,14.5,1.5l19,19c0,0,0,0,0,0l26.5-26.5c0,0,0,0,0,0l-19-19       c-3.9-3.9-4.5-10-1.5-14.5c9.5-14.5,16.2-30.5,19.7-47.4l0,0c1.1-5.4,5.9-9.2,11.3-9.2H419c0,0,0,0,0,0l0-37.4c0,0,0,0,0,0       l-26.9,0c-5.5,0-10.2-3.9-11.3-9.2c-3.5-17-10.1-32.9-19.7-47.4c-3-4.5-2.4-10.6,1.5-14.5l19-19c0,0,0,0,0,0l-26.5-26.5       c0,0,0,0,0,0l-19,19c-3.9,3.9-10,4.5-14.5,1.5c-14.5-9.5-30.5-16.2-47.4-19.7c-5.4-1.1-9.2-5.9-9.2-11.3V74c0,0,0,0,0,0       l-37.4,0c0,0,0,0,0,0l0,26.9c0,5.5-3.9,10.2-9.2,11.3c-17,3.5-32.9,10.1-47.4,19.7c-4.5,3-10.6,2.4-14.5-1.5l-19-19       c0,0,0,0,0,0l-26.5,26.5c0,0,0,0,0,0l19,19c3.9,3.9,4.5,10,1.5,14.5c-9.5,14.5-16.2,30.5-19.7,47.4c-1.1,5.4-5.9,9.2-11.3,9.2       H73.5c0,0,0,0,0,0l0,37.4c0,0,0,0,0,0l26.9,0c5.5,0,10.2,3.9,11.3,9.2c3.5,17,10.1,32.9,19.7,47.4c3,4.5,2.4,10.6-1.5,14.5       l-19,19c0,0,0,0,0,0l26.5,26.5c0,0,0,0,0,0l19-19C158.6,360.9,161.6,359.8,164.6,359.8z"/>
        </g>
      </g>
      <g>
        <g>
          <g>
            <path class="st0" d="M166.4,284.9c-0.7,0-1.5-0.1-2.2-0.4c-1.4-0.6-2.5-1.7-3.1-3.1c-4.8-11.5-7.2-23.6-7.1-35.9        c0.1-11.9,2.4-23.6,7-34.6c4.6-11.1,11.1-21,19.5-29.5c8.7-8.8,18.9-15.7,30.4-20.5s23.6-7.1,35.9-7.1        c11.9,0.1,23.6,2.4,34.6,7c11.1,4.6,21,11.1,29.5,19.5c8.8,8.7,15.7,18.9,20.5,30.4c0.6,1.4,0.6,3,0,4.4s-1.7,2.5-3.1,3.1        L304,228.3c-2.9,1.2-6.3-0.2-7.5-3.1c-5.6-13.4-16-23.8-29.4-29.4c-13.4-5.5-28.2-5.5-41.6,0c-13.4,5.6-23.8,16-29.4,29.4        c-5.5,13.4-5.5,28.2,0,41.6c1.2,2.9-0.2,6.3-3.1,7.5l-24.4,10.1C167.9,284.7,167.2,284.9,166.4,284.9L166.4,284.9z         M246.3,165.2c-10.5,0-21,2.1-30.9,6.2c-39.3,16.3-58.9,60.3-45.6,100.1l13.8-5.7c-4.7-14.7-4-30.5,1.9-45        c6.7-16.3,19.4-28.9,35.6-35.7c16.2-6.7,34.1-6.8,50.4,0c14.5,6,26.1,16.6,33.2,30.4l13.8-5.7c-8.7-17.4-23.2-30.9-41.3-38.4        C267.1,167.3,256.7,165.2,246.3,165.2z"/>
          </g>
          <g>
            <g>
              <path class="st0" d="M223.2,196.3c-2.3,0-4.4-1.3-5.3-3.6l-10.1-24.4c-1.2-2.9,0.2-6.3,3.1-7.5c2.9-1.2,6.3,0.2,7.5,3.1         l10.1,24.4c1.2,2.9-0.2,6.3-3.1,7.5C224.7,196.1,224,196.3,223.2,196.3z"/>
            </g>
            <g>
              <path class="st0" d="M269.2,196.2c-0.7,0-1.5-0.1-2.2-0.4c-2.9-1.2-4.3-4.6-3.1-7.5l10.1-24.4c1.2-2.9,4.6-4.3,7.5-3.1         c2.9,1.2,4.3,4.6,3.1,7.5l-10.1,24.4C273.6,194.9,271.5,196.2,269.2,196.2z"/>
            </g>
            <g>
              <path class="st0" d="M190.7,228.8c-0.7,0-1.5-0.1-2.2-0.4l-24.4-10.1c-2.9-1.2-4.3-4.6-3.1-7.5c1.2-2.9,4.6-4.3,7.5-3.1         l24.4,10.1c2.9,1.2,4.3,4.6,3.1,7.5C195.1,227.5,193,228.8,190.7,228.8z"/>
            </g>
            <g>
              <path class="st0" d="M301.8,228.4c-3.1,0-5.9-2.2-6.4-5.3l-5.7-33.8c-0.8-4.5,2.3-8.7,6.8-9.5c4.5-0.8,8.7,2.3,9.5,6.8l5.7,33.8         c0.8,4.5-2.3,8.7-6.8,9.5C302.5,228.4,302.1,228.4,301.8,228.4z"/>
            </g>
            <g>
              <path class="st0" d="M181.2,195.6c-0.6,0-1.2-0.2-1.7-0.6c-3.8-3.1-4.6-8.7-1.5-12.5c2.1-2.6,5.4-4,8.8-4c1.7,0,3.5,0.4,5.1,1.2         l33.8,17.7c3.4,1.8,4.7,6.2,2.9,9.6c-1.8,3.4-6.2,4.7-9.6,2.9l-33.8-17.7C182.4,195.7,181.8,195.6,181.2,195.6z"/>
            </g>
            <g>
              <path class="st0" d="M312.5,195.2c-0.2,0-0.5,0-0.7-0.1c-4.5-1.1-7.6-5.1-6.5-9.6l5.7-33.8c1.1-4.5,5.1-7.6,9.6-6.5         c4.5,1.1,7.6,5.1,6.5,9.6l-5.7,33.8C320.1,192.9,316.5,195.2,312.5,195.2z"/>
            </g>
          </g>
        </g>
      </g>
    </g>
  </g>
</svg>
